<svg xmlns="http://www.w3.org/2000/svg" xmlns:oryx="http://oryx-editor.org" id="_8448BB02-57C2-4ACA-BB1A-79E7F9FD1005" width="1044" height="224" xmlns:xlink="http://www.w3.org/1999/xlink" xmlns:svg="http://www.w3.org/2000/svg"><defs><marker id="_FF9A40E6-D81E-4888-B36B-6B032A4D1B17start" refX="1" refY="5" markerUnits="userSpaceOnUse" markerWidth="17" markerHeight="11" orient="auto" fill="#000000" stroke="#000000"> 	  		<path id="_FF9A40E6-D81E-4888-B36B-6B032A4D1B17conditional" d="M 0 5 L 8 0 L 16 5 L 8 10 L 0 5" fill="white" stroke="#000000" stroke-width="1" display="none"/> 			<path id="_FF9A40E6-D81E-4888-B36B-6B032A4D1B17default" d="M 5 0 L 11 10" fill="white" stroke="#000000" stroke-width="1" display="none"/> 	  	</marker><marker id="_FF9A40E6-D81E-4888-B36B-6B032A4D1B17end" refX="15" refY="6" markerUnits="userSpaceOnUse" markerWidth="15" markerHeight="12" orient="auto" fill="#000000" stroke="#000000"> 	  		<path id="_FF9A40E6-D81E-4888-B36B-6B032A4D1B17frame2" d="M 0 1 L 15 6 L 0 11z" fill="#000000" stroke="#000000" stroke-linejoin="round" stroke-width="2"/> 	  	</marker><marker id="_7A789AAD-1382-4A72-96E1-F640918DE401start" refX="1" refY="5" markerUnits="userSpaceOnUse" markerWidth="17" markerHeight="11" orient="auto" fill="#000000" stroke="#000000"> 	  		<path id="_7A789AAD-1382-4A72-96E1-F640918DE401conditional" d="M 0 5 L 8 0 L 16 5 L 8 10 L 0 5" fill="white" stroke="#000000" stroke-width="1" display="none"/> 			<path id="_7A789AAD-1382-4A72-96E1-F640918DE401default" d="M 5 0 L 11 10" fill="white" stroke="#000000" stroke-width="1" display="none"/> 	  	</marker><marker id="_7A789AAD-1382-4A72-96E1-F640918DE401end" refX="15" refY="6" markerUnits="userSpaceOnUse" markerWidth="15" markerHeight="12" orient="auto" fill="#000000" stroke="#000000"> 	  		<path id="_7A789AAD-1382-4A72-96E1-F640918DE401frame2" d="M 0 1 L 15 6 L 0 11z" fill="#000000" stroke="#000000" stroke-linejoin="round" stroke-width="2"/> 	  	</marker><marker id="_E55C6FF4-BECD-4C08-B086-BB35417DA81Astart" refX="1" refY="5" markerUnits="userSpaceOnUse" markerWidth="17" markerHeight="11" orient="auto" fill="#000000" stroke="#000000"> 	  		<path id="_E55C6FF4-BECD-4C08-B086-BB35417DA81Aconditional" d="M 0 5 L 8 0 L 16 5 L 8 10 L 0 5" fill="white" stroke="#000000" stroke-width="1" display="none"/> 			<path id="_E55C6FF4-BECD-4C08-B086-BB35417DA81Adefault" d="M 5 0 L 11 10" fill="white" stroke="#000000" stroke-width="1" display="none"/> 	  	</marker><marker id="_E55C6FF4-BECD-4C08-B086-BB35417DA81Aend" refX="15" refY="6" markerUnits="userSpaceOnUse" markerWidth="15" markerHeight="12" orient="auto" fill="#000000" stroke="#000000"> 	  		<path id="_E55C6FF4-BECD-4C08-B086-BB35417DA81Aframe2" d="M 0 1 L 15 6 L 0 11z" fill="#000000" stroke="#000000" stroke-linejoin="round" stroke-width="2"/> 	  	</marker><marker id="_76650319-39A1-48D0-B4E9-E1850495BCC3start" refX="1" refY="5" markerUnits="userSpaceOnUse" markerWidth="17" markerHeight="11" orient="auto" fill="#000000" stroke="#000000"> 	  		<path id="_76650319-39A1-48D0-B4E9-E1850495BCC3conditional" d="M 0 5 L 8 0 L 16 5 L 8 10 L 0 5" fill="white" stroke="#000000" stroke-width="1" display="none"/> 			<path id="_76650319-39A1-48D0-B4E9-E1850495BCC3default" d="M 5 0 L 11 10" fill="white" stroke="#000000" stroke-width="1" display="none"/> 	  	</marker><marker id="_76650319-39A1-48D0-B4E9-E1850495BCC3end" refX="15" refY="6" markerUnits="userSpaceOnUse" markerWidth="15" markerHeight="12" orient="auto" fill="#000000" stroke="#000000"> 	  		<path id="_76650319-39A1-48D0-B4E9-E1850495BCC3frame2" d="M 0 1 L 15 6 L 0 11z" fill="#000000" stroke="#000000" stroke-linejoin="round" stroke-width="2"/> 	  	</marker></defs><g stroke="none" font-family="Verdana, sans-serif" font-size-adjust="none" font-style="normal" font-variant="normal" font-weight="normal" line-heigth="normal" font-size="12"><g class="stencils" transform="translate(15, 16)"><g class="me"/><g class="children"><g id="_4936A485-1C12-4E94-89CF-7D75445784E0" bpmn2nodeid="_C30AD53D-6023-48C6-8CD7-C35B138557DD"><g class="stencils" transform="translate(735, 77)"><g class="me"><g pointer-events="fill" oryx:minimumSize="50 40" id="_4936A485-1C12-4E94-89CF-7D75445784E0">   	<defs id="_4936A485-1C12-4E94-89CF-7D75445784E0__4936A485-1C12-4E94-89CF-7D75445784E0_17"> 		<radialGradient id="_4936A485-1C12-4E94-89CF-7D75445784E0background" cx="10%" cy="10%" r="100%" fx="10%" fy="10%"> 			<stop offset="0%" stop-color="#ffffff" stop-opacity="1" id="_4936A485-1C12-4E94-89CF-7D75445784E0__4936A485-1C12-4E94-89CF-7D75445784E0_18"/> 			<stop id="_4936A485-1C12-4E94-89CF-7D75445784E0fill_el" offset="100%" stop-color="#fafad2" stop-opacity="1"/> 		</radialGradient> 		<radialGradient id="_4936A485-1C12-4E94-89CF-7D75445784E0borderbackground" cx="10%" cy="10%" r="100%" fx="10%" fy="10%"> 			<stop offset="0%" stop-color="#ffffff" stop-opacity="1" id="_4936A485-1C12-4E94-89CF-7D75445784E0__4936A485-1C12-4E94-89CF-7D75445784E0_19"/> 			<stop id="_4936A485-1C12-4E94-89CF-7D75445784E0fill_border" offset="100%" stop-color="#000000" stop-opacity="1" stroke="#000000"/> 		</radialGradient> 	</defs> 	 	<rect id="_4936A485-1C12-4E94-89CF-7D75445784E0text_frame" oryx:anchors="bottom top right left" x="1" y="1" width="148" height="101" rx="10" ry="10" stroke="none" stroke-width="0" fill="none"/> 	<rect id="_4936A485-1C12-4E94-89CF-7D75445784E0bg_frame" oryx:resize="vertical horizontal" x="0" y="0" width="154" height="102" rx="10" ry="10" stroke="#000000" stroke-width="1" fill="url(#_4936A485-1C12-4E94-89CF-7D75445784E0background) #ffffcc"/> 		<text font-size="12" id="_4936A485-1C12-4E94-89CF-7D75445784E0text_name" x="77" y="51" oryx:align="middle center" oryx:fittoelem="text_frame" stroke="black" text-anchor="middle" stroke-width="0pt" letter-spacing="-0.01px" fill="#000000" transform="rotate(0 77 51)" visibility="inherit" oryx:fontSize="12"><tspan x="77" y="51" dy="5" id="ext-gen855">Ingresar pedido</tspan></text>     <g id="_4936A485-1C12-4E94-89CF-7D75445784E0manualTask" transform="scale(0.7,0.7) translate(8,8)" display="none">     	<path oryx:anchors="top left" id="_4936A485-1C12-4E94-89CF-7D75445784E0frame" style="opacity:1;fill:none;fill-opacity:1;stroke-width:1" d="M0.5,3.751l4.083-3.25c0,0,11.166,0.083,12.083,0.083s-2.417,2.917-1.5,2.917     s11.667,0,12.584,0c1.166,1.708-0.168,3.167-0.834,3.667s0.875,1.917-1,4.417c-0.75,0.25,0.75,1.875-1.333,3.333     c-1.167,0.583,0.583,1.542-1.25,2.833c-1.167,0-20.833,0.083-20.833,0.083l-2-1.333V3.751z" stroke="#000000"/> 		<path id="_4936A485-1C12-4E94-89CF-7D75445784E0frame2" oryx:anchors="top left" style="opacity:1;fill:none;stroke-width:2" d="M 13.5 7 L 27 7" stroke="#000000"/> 		<path id="_4936A485-1C12-4E94-89CF-7D75445784E0frame3" oryx:anchors="top left" style="opacity:1;fill:none;stroke-width:2" d="M 13.5 11 L 26 11" stroke="#000000"/> 		<path id="_4936A485-1C12-4E94-89CF-7D75445784E0frame4" oryx:anchors="top left" style="opacity:1;fill:none;stroke-width:1.5" d="M 14 14.5 L 25 14.5" stroke="#000000"/> 		<path id="_4936A485-1C12-4E94-89CF-7D75445784E0frame5" oryx:anchors="top left" style="opacity:1;fill:none;stroke-width:1.5" d="M 8.2 3.1 L 15 3.1" stroke="#000000"/> 	</g> 	 	<g id="_4936A485-1C12-4E94-89CF-7D75445784E0businessRuleTask" transform="scale(0.7,0.7) translate(8,8)" display="none"> 		<rect id="_4936A485-1C12-4E94-89CF-7D75445784E0frame6" oryx:anchors="top left" x="0" y="0" width="22" height="4" style="opacity:1;fill:#B3B1B3;fill-opacity:1;" stroke="#000000"/> 		<rect id="_4936A485-1C12-4E94-89CF-7D75445784E0frame7" oryx:anchors="top left" x="0" y="4" style="opacity:1;fill:none;" width="22" height="12" stroke="#000000"/> 		<path id="_4936A485-1C12-4E94-89CF-7D75445784E0frame8" oryx:anchors="top left" style="opacity:1;fill:none;" d="M 0 10 L 22 10" stroke="#000000"/> 		<path id="_4936A485-1C12-4E94-89CF-7D75445784E0frame9" oryx:anchors="top left" style="opacity:1; fill:none;" d="M 7 4 L 7 16" stroke="#000000"/> 	</g> 	 	<g id="_4936A485-1C12-4E94-89CF-7D75445784E0scriptTask" transform="scale(0.7,0.7) translate(8,8)" display="none"> 		<path oryx:anchors="top left" id="_4936A485-1C12-4E94-89CF-7D75445784E0frame10" style="opacity:1;fill:none;" stroke="#000000" d="M6.402,0.5h14.5c0,0-5.833,2.833-5.833,5.583s4.417,6,4.417,9.167    s-4.167,5.083-4.167,5.083H0.235c0,0,5-2.667,5-5s-4.583-6.75-4.583-9.25S6.402,0.5,6.402,0.5z"/> 		<path oryx:anchors="top left" id="_4936A485-1C12-4E94-89CF-7D75445784E0frame11" style="opacity:1;fill:none;stroke-width:1.5" d="M 3.5 4.5 L 13.5 4.5" stroke="#000000"/> 		<path oryx:anchors="top left" id="_4936A485-1C12-4E94-89CF-7D75445784E0frame12" style="opacity:1;fill:none;stroke-width:1.5" d="M 3.8 8.5 L 13.8 8.5" stroke="#000000"/> 		<path oryx:anchors="top left" id="_4936A485-1C12-4E94-89CF-7D75445784E0frame13" style="opacity:1;fill:none;stroke-width:1.5" d="M 6.3 12.5 L 16.3 12.5" stroke="#000000"/> 		<path oryx:anchors="top left" id="_4936A485-1C12-4E94-89CF-7D75445784E0frame14" style="opacity:1;fill:none;stroke-width:1.5" d="M 6.5 16.5 L 16.5 16.5" stroke="#000000"/> 	</g> 	 	<g id="_4936A485-1C12-4E94-89CF-7D75445784E0userTask" transform="scale(0.7,0.7) translate(8,8)" display="inherit"> 		<path id="_4936A485-1C12-4E94-89CF-7D75445784E0frame15" oryx:anchors="top left" style="opacity:1;fill:#F4F6F7" stroke="#000000" d="M0.585,24.167h24.083v-7.833c0,0-2.333-3.917-7.083-5.167h-9.25    c-4.417,1.333-7.833,5.75-7.833,5.75L0.585,24.167z"/> 		<path id="_4936A485-1C12-4E94-89CF-7D75445784E0frame16" oryx:anchors="top left" style="opacity:1;fill:none" d="M 6 20 L 6 24" stroke="#000000"/> 		<path id="_4936A485-1C12-4E94-89CF-7D75445784E0frame17" oryx:anchors="top left" style="opacity:1;fill:none" d="M 20 20 L 20 24" stroke="#000000"/> 		<circle id="_4936A485-1C12-4E94-89CF-7D75445784E0frame18" oryx:anchors="top left" fill="black" cx="13.002" cy="5.916" r="5.417" stroke="#000000"/> 		<path id="_4936A485-1C12-4E94-89CF-7D75445784E0frame19" oryx:anchors="top left" style="opacity:1;fill:#F0EFF0;" stroke="#000000" d="M8.043,7.083c0,0,2.814-2.426,5.376-1.807s4.624-0.693,4.624-0.693    c0.25,1.688,0.042,3.75-1.458,5.584c0,0,1.083,0.75,1.083,1.5s0.125,1.875-1,3s-5.5,1.25-6.75,0S8.668,12.834,8.668,12    s0.583-1.25,1.25-1.917C8.835,9.5,7.419,7.708,8.043,7.083z"/> 	</g> 	 	<g id="_4936A485-1C12-4E94-89CF-7D75445784E0serviceTask" transform="scale(0.7,0.7) translate(8,8)" display="none"> 		<polygon oryx:anchors="top left" id="_4936A485-1C12-4E94-89CF-7D75445784E0frame20" style="opacity:1;fill:#ffffff" stroke="#000000" points="15.392,5.064 17.954,2.502 20.347,4.895 17.786,7.455     18.729,9.732 22.353,9.732 22.353,13.115 18.731,13.115 17.788,15.392 20.351,17.955 17.958,20.347 15.397,17.786 13.12,18.729     13.12,22.353 9.737,22.353 9.737,18.731 7.46,17.788 4.897,20.35 2.506,17.958 5.066,15.397 4.124,13.12 0.5,13.12 0.5,9.737     4.121,9.737 5.065,7.461 2.503,4.898 4.895,2.506 7.455,5.066 9.732,4.125 9.732,0.5 13.116,0.5 13.116,4.121 "/> 		<circle oryx:anchors="top left" id="_4936A485-1C12-4E94-89CF-7D75445784E0frame21" style="opacity:1;fill:none" stroke="#000000" cx="11.427" cy="11.426" r="3.714"/> 		<polygon oryx:anchors="top left" id="_4936A485-1C12-4E94-89CF-7D75445784E0frame22" style="opacity:1;fill:#ffffff" stroke="#000000" points="21.392,11.064 23.954,8.502 26.347,10.895 23.786,13.455     24.729,15.732 28.353,15.732 28.353,19.115 24.731,19.115 23.788,21.392 26.351,23.955 23.958,26.347 21.397,23.786 19.12,24.729     19.12,28.353 15.737,28.353 15.737,24.731 13.46,23.788 10.897,26.35 8.506,23.958 11.066,21.397 10.124,19.12 6.5,19.12     6.5,15.737 10.121,15.737 11.065,13.461 8.503,10.898 10.895,8.506 13.455,11.066 15.732,10.125 15.732,6.5 19.116,6.5     19.116,10.121 "/> 		<circle oryx:anchors="top left" id="_4936A485-1C12-4E94-89CF-7D75445784E0frame23" style="opacity:1;fill:none;" stroke="#000000" cx="17.427" cy="17.426" r="3.714"/> 	</g> 	 	<g id="_4936A485-1C12-4E94-89CF-7D75445784E0sendTask" display="none"> 		<path id="_4936A485-1C12-4E94-89CF-7D75445784E0stframe24" oryx:anchors="left top" stroke="#FFFFFF" fill="black" stroke-width="1" d="M8,11 L8,21 L24,21 L24,11 L16,17z"/> 		<path id="_4936A485-1C12-4E94-89CF-7D75445784E0stframe25" oryx:anchors="left top" stroke="#FFFFFF" fill="black" stroke-width="1" d="M7,10 L16,17 L25 10z"/> 	</g> 	 	<g id="_4936A485-1C12-4E94-89CF-7D75445784E0receiveTask" display="none"> 		<path id="_4936A485-1C12-4E94-89CF-7D75445784E0frame26" oryx:anchors="left top" stroke="#000000" fill="none" stroke-width="1" d="M8,11 L8,21 L24,21 L24,11z M8,11 L16,17 L24,11"/> 	</g> 	 	<g id="_4936A485-1C12-4E94-89CF-7D75445784E0none" display="inherit"/>  	<g id="_4936A485-1C12-4E94-89CF-7D75445784E0sequential" display="none">         <path oryx:anchors="bottom" fill="none" stroke="#000000" stroke-width="2" d=" M73.54 98  h10  M73.54 94  h10  M73.54 90  h10 " id="_4936A485-1C12-4E94-89CF-7D75445784E0__4936A485-1C12-4E94-89CF-7D75445784E0_20"/>     </g>   </g></g><g class="children" style="overflow:hidden"/><g class="edge"/></g><g class="controls"><g class="dockers"/><g class="magnets" transform="translate(735, 77)"><g pointer-events="all" display="none" transform="translate(-7, 17.5)"><circle cx="8" cy="8" r="4" stroke="none" fill="red" fill-opacity="0.3"/></g><g pointer-events="all" display="none" transform="translate(-7, 43)"><circle cx="8" cy="8" r="4" stroke="none" fill="red" fill-opacity="0.3"/></g><g pointer-events="all" display="none" transform="translate(-7, 68.5)"><circle cx="8" cy="8" r="4" stroke="none" fill="red" fill-opacity="0.3"/></g><g pointer-events="all" display="none" transform="translate(30.5, 93)"><circle cx="8" cy="8" r="4" stroke="none" fill="red" fill-opacity="0.3"/></g><g pointer-events="all" display="none" transform="translate(69, 93)"><circle cx="8" cy="8" r="4" stroke="none" fill="red" fill-opacity="0.3"/></g><g pointer-events="all" display="none" transform="translate(107.5, 93)"><circle cx="8" cy="8" r="4" stroke="none" fill="red" fill-opacity="0.3"/></g><g pointer-events="all" display="none" transform="translate(145, 17.5)"><circle cx="8" cy="8" r="4" stroke="none" fill="red" fill-opacity="0.3"/></g><g pointer-events="all" display="none" transform="translate(145, 43)"><circle cx="8" cy="8" r="4" stroke="none" fill="red" fill-opacity="0.3"/></g><g pointer-events="all" display="none" transform="translate(145, 68.5)"><circle cx="8" cy="8" r="4" stroke="none" fill="red" fill-opacity="0.3"/></g><g pointer-events="all" display="none" transform="translate(30.5, -7)"><circle cx="8" cy="8" r="4" stroke="none" fill="red" fill-opacity="0.3"/></g><g pointer-events="all" display="none" transform="translate(69, -7)"><circle cx="8" cy="8" r="4" stroke="none" fill="red" fill-opacity="0.3"/></g><g pointer-events="all" display="none" transform="translate(107.5, -7)"><circle cx="8" cy="8" r="4" stroke="none" fill="red" fill-opacity="0.3"/></g><g pointer-events="all" display="none" transform="translate(69, 43)"><circle cx="8" cy="8" r="4" stroke="none" fill="red" fill-opacity="0.3"/></g></g></g></g><g id="_E418C915-B697-49F8-B3F1-113B54B1E72D" bpmn2nodeid="_B3798599-E4C2-4C96-8056-DF8BF852F20B"><g class="stencils" transform="translate(135, 113)"><g class="me"><g pointer-events="fill" id="_E418C915-B697-49F8-B3F1-113B54B1E72D">        <defs id="_E418C915-B697-49F8-B3F1-113B54B1E72D__E418C915-B697-49F8-B3F1-113B54B1E72D_5"> 		<radialGradient id="_E418C915-B697-49F8-B3F1-113B54B1E72Dbackground" cx="10%" cy="10%" r="100%" fx="10%" fy="10%"> 			<stop offset="0%" stop-color="#ffffff" stop-opacity="1" id="_E418C915-B697-49F8-B3F1-113B54B1E72D__E418C915-B697-49F8-B3F1-113B54B1E72D_6"/> 			<stop id="_E418C915-B697-49F8-B3F1-113B54B1E72Dfill_el" offset="100%" stop-color="#9acd32" stop-opacity="1"/> 		</radialGradient> 	</defs> 	     <circle id="_E418C915-B697-49F8-B3F1-113B54B1E72Dbg_frame" cx="15" cy="15" r="15" stroke="#000000" fill="url(#_E418C915-B697-49F8-B3F1-113B54B1E72Dbackground) white" stroke-width="1" style="stroke-dasharray: 5.5, 3"/>      <circle id="_E418C915-B697-49F8-B3F1-113B54B1E72Dframe" cx="15" cy="15" r="15" stroke="#000000" fill="none" stroke-width="1" display="inherit"/>  	<text font-size="11" id="_E418C915-B697-49F8-B3F1-113B54B1E72Dtext_name" x="15" y="32" oryx:align="top center" stroke="black" stroke-width="0pt" letter-spacing="-0.01px" fill="#000000" text-anchor="middle" transform="rotate(0 15 32)" visibility="inherit" oryx:fontSize="11"/>   </g></g><g class="children" style="overflow:hidden"/><g class="edge"/></g><g class="controls"><g class="dockers"/><g class="magnets" transform="translate(135, 113)"><g pointer-events="all" display="none" transform="translate(7, 7)"><circle cx="8" cy="8" r="4" stroke="none" fill="red" fill-opacity="0.3"/></g></g></g></g><g id="_CCEBCA2B-B011-4667-91B0-E39AD2BF6F12" bpmn2nodeid="_1029527B-F499-4CAF-B9A2-E022DC16C40E"><g class="stencils" transform="translate(480, 77)"><g class="me"><g pointer-events="fill" oryx:minimumSize="50 40" id="_CCEBCA2B-B011-4667-91B0-E39AD2BF6F12">   	<defs id="_CCEBCA2B-B011-4667-91B0-E39AD2BF6F12__CCEBCA2B-B011-4667-91B0-E39AD2BF6F12_17"> 		<radialGradient id="_CCEBCA2B-B011-4667-91B0-E39AD2BF6F12background" cx="10%" cy="10%" r="100%" fx="10%" fy="10%"> 			<stop offset="0%" stop-color="#ffffff" stop-opacity="1" id="_CCEBCA2B-B011-4667-91B0-E39AD2BF6F12__CCEBCA2B-B011-4667-91B0-E39AD2BF6F12_18"/> 			<stop id="_CCEBCA2B-B011-4667-91B0-E39AD2BF6F12fill_el" offset="100%" stop-color="#fafad2" stop-opacity="1"/> 		</radialGradient> 		<radialGradient id="_CCEBCA2B-B011-4667-91B0-E39AD2BF6F12borderbackground" cx="10%" cy="10%" r="100%" fx="10%" fy="10%"> 			<stop offset="0%" stop-color="#ffffff" stop-opacity="1" id="_CCEBCA2B-B011-4667-91B0-E39AD2BF6F12__CCEBCA2B-B011-4667-91B0-E39AD2BF6F12_19"/> 			<stop id="_CCEBCA2B-B011-4667-91B0-E39AD2BF6F12fill_border" offset="100%" stop-color="#000000" stop-opacity="1" stroke="#000000"/> 		</radialGradient> 	</defs> 	 	<rect id="_CCEBCA2B-B011-4667-91B0-E39AD2BF6F12text_frame" oryx:anchors="bottom top right left" x="1" y="1" width="148" height="101" rx="10" ry="10" stroke="none" stroke-width="0" fill="none"/> 	<rect id="_CCEBCA2B-B011-4667-91B0-E39AD2BF6F12bg_frame" oryx:resize="vertical horizontal" x="0" y="0" width="154" height="102" rx="10" ry="10" stroke="#000000" stroke-width="1" fill="url(#_CCEBCA2B-B011-4667-91B0-E39AD2BF6F12background) #ffffcc"/> 		<text font-size="12" id="_CCEBCA2B-B011-4667-91B0-E39AD2BF6F12text_name" x="77" y="51" oryx:align="middle center" oryx:fittoelem="text_frame" stroke="black" text-anchor="middle" stroke-width="0pt" letter-spacing="-0.01px" fill="#000000" transform="rotate(0 77 51)" visibility="inherit" oryx:fontSize="12"><tspan x="77" y="51" dy="5">Asignar Cliente</tspan></text>     <g id="_CCEBCA2B-B011-4667-91B0-E39AD2BF6F12manualTask" transform="scale(0.7,0.7) translate(8,8)" display="none">     	<path oryx:anchors="top left" id="_CCEBCA2B-B011-4667-91B0-E39AD2BF6F12frame" style="opacity:1;fill:none;fill-opacity:1;stroke-width:1" d="M0.5,3.751l4.083-3.25c0,0,11.166,0.083,12.083,0.083s-2.417,2.917-1.5,2.917     s11.667,0,12.584,0c1.166,1.708-0.168,3.167-0.834,3.667s0.875,1.917-1,4.417c-0.75,0.25,0.75,1.875-1.333,3.333     c-1.167,0.583,0.583,1.542-1.25,2.833c-1.167,0-20.833,0.083-20.833,0.083l-2-1.333V3.751z" stroke="#000000"/> 		<path id="_CCEBCA2B-B011-4667-91B0-E39AD2BF6F12frame2" oryx:anchors="top left" style="opacity:1;fill:none;stroke-width:2" d="M 13.5 7 L 27 7" stroke="#000000"/> 		<path id="_CCEBCA2B-B011-4667-91B0-E39AD2BF6F12frame3" oryx:anchors="top left" style="opacity:1;fill:none;stroke-width:2" d="M 13.5 11 L 26 11" stroke="#000000"/> 		<path id="_CCEBCA2B-B011-4667-91B0-E39AD2BF6F12frame4" oryx:anchors="top left" style="opacity:1;fill:none;stroke-width:1.5" d="M 14 14.5 L 25 14.5" stroke="#000000"/> 		<path id="_CCEBCA2B-B011-4667-91B0-E39AD2BF6F12frame5" oryx:anchors="top left" style="opacity:1;fill:none;stroke-width:1.5" d="M 8.2 3.1 L 15 3.1" stroke="#000000"/> 	</g> 	 	<g id="_CCEBCA2B-B011-4667-91B0-E39AD2BF6F12businessRuleTask" transform="scale(0.7,0.7) translate(8,8)" display="none"> 		<rect id="_CCEBCA2B-B011-4667-91B0-E39AD2BF6F12frame6" oryx:anchors="top left" x="0" y="0" width="22" height="4" style="opacity:1;fill:#B3B1B3;fill-opacity:1;" stroke="#000000"/> 		<rect id="_CCEBCA2B-B011-4667-91B0-E39AD2BF6F12frame7" oryx:anchors="top left" x="0" y="4" style="opacity:1;fill:none;" width="22" height="12" stroke="#000000"/> 		<path id="_CCEBCA2B-B011-4667-91B0-E39AD2BF6F12frame8" oryx:anchors="top left" style="opacity:1;fill:none;" d="M 0 10 L 22 10" stroke="#000000"/> 		<path id="_CCEBCA2B-B011-4667-91B0-E39AD2BF6F12frame9" oryx:anchors="top left" style="opacity:1; fill:none;" d="M 7 4 L 7 16" stroke="#000000"/> 	</g> 	 	<g id="_CCEBCA2B-B011-4667-91B0-E39AD2BF6F12scriptTask" transform="scale(0.7,0.7) translate(8,8)" display="inherit"> 		<path oryx:anchors="top left" id="_CCEBCA2B-B011-4667-91B0-E39AD2BF6F12frame10" style="opacity:1;fill:none;" stroke="#000000" d="M6.402,0.5h14.5c0,0-5.833,2.833-5.833,5.583s4.417,6,4.417,9.167    s-4.167,5.083-4.167,5.083H0.235c0,0,5-2.667,5-5s-4.583-6.75-4.583-9.25S6.402,0.5,6.402,0.5z"/> 		<path oryx:anchors="top left" id="_CCEBCA2B-B011-4667-91B0-E39AD2BF6F12frame11" style="opacity:1;fill:none;stroke-width:1.5" d="M 3.5 4.5 L 13.5 4.5" stroke="#000000"/> 		<path oryx:anchors="top left" id="_CCEBCA2B-B011-4667-91B0-E39AD2BF6F12frame12" style="opacity:1;fill:none;stroke-width:1.5" d="M 3.8 8.5 L 13.8 8.5" stroke="#000000"/> 		<path oryx:anchors="top left" id="_CCEBCA2B-B011-4667-91B0-E39AD2BF6F12frame13" style="opacity:1;fill:none;stroke-width:1.5" d="M 6.3 12.5 L 16.3 12.5" stroke="#000000"/> 		<path oryx:anchors="top left" id="_CCEBCA2B-B011-4667-91B0-E39AD2BF6F12frame14" style="opacity:1;fill:none;stroke-width:1.5" d="M 6.5 16.5 L 16.5 16.5" stroke="#000000"/> 	</g> 	 	<g id="_CCEBCA2B-B011-4667-91B0-E39AD2BF6F12userTask" transform="scale(0.7,0.7) translate(8,8)" display="none"> 		<path id="_CCEBCA2B-B011-4667-91B0-E39AD2BF6F12frame15" oryx:anchors="top left" style="opacity:1;fill:#F4F6F7" stroke="#000000" d="M0.585,24.167h24.083v-7.833c0,0-2.333-3.917-7.083-5.167h-9.25    c-4.417,1.333-7.833,5.75-7.833,5.75L0.585,24.167z"/> 		<path id="_CCEBCA2B-B011-4667-91B0-E39AD2BF6F12frame16" oryx:anchors="top left" style="opacity:1;fill:none" d="M 6 20 L 6 24" stroke="#000000"/> 		<path id="_CCEBCA2B-B011-4667-91B0-E39AD2BF6F12frame17" oryx:anchors="top left" style="opacity:1;fill:none" d="M 20 20 L 20 24" stroke="#000000"/> 		<circle id="_CCEBCA2B-B011-4667-91B0-E39AD2BF6F12frame18" oryx:anchors="top left" fill="black" cx="13.002" cy="5.916" r="5.417" stroke="#000000"/> 		<path id="_CCEBCA2B-B011-4667-91B0-E39AD2BF6F12frame19" oryx:anchors="top left" style="opacity:1;fill:#F0EFF0;" stroke="#000000" d="M8.043,7.083c0,0,2.814-2.426,5.376-1.807s4.624-0.693,4.624-0.693    c0.25,1.688,0.042,3.75-1.458,5.584c0,0,1.083,0.75,1.083,1.5s0.125,1.875-1,3s-5.5,1.25-6.75,0S8.668,12.834,8.668,12    s0.583-1.25,1.25-1.917C8.835,9.5,7.419,7.708,8.043,7.083z"/> 	</g> 	 	<g id="_CCEBCA2B-B011-4667-91B0-E39AD2BF6F12serviceTask" transform="scale(0.7,0.7) translate(8,8)" display="none"> 		<polygon oryx:anchors="top left" id="_CCEBCA2B-B011-4667-91B0-E39AD2BF6F12frame20" style="opacity:1;fill:#ffffff" stroke="#000000" points="15.392,5.064 17.954,2.502 20.347,4.895 17.786,7.455     18.729,9.732 22.353,9.732 22.353,13.115 18.731,13.115 17.788,15.392 20.351,17.955 17.958,20.347 15.397,17.786 13.12,18.729     13.12,22.353 9.737,22.353 9.737,18.731 7.46,17.788 4.897,20.35 2.506,17.958 5.066,15.397 4.124,13.12 0.5,13.12 0.5,9.737     4.121,9.737 5.065,7.461 2.503,4.898 4.895,2.506 7.455,5.066 9.732,4.125 9.732,0.5 13.116,0.5 13.116,4.121 "/> 		<circle oryx:anchors="top left" id="_CCEBCA2B-B011-4667-91B0-E39AD2BF6F12frame21" style="opacity:1;fill:none" stroke="#000000" cx="11.427" cy="11.426" r="3.714"/> 		<polygon oryx:anchors="top left" id="_CCEBCA2B-B011-4667-91B0-E39AD2BF6F12frame22" style="opacity:1;fill:#ffffff" stroke="#000000" points="21.392,11.064 23.954,8.502 26.347,10.895 23.786,13.455     24.729,15.732 28.353,15.732 28.353,19.115 24.731,19.115 23.788,21.392 26.351,23.955 23.958,26.347 21.397,23.786 19.12,24.729     19.12,28.353 15.737,28.353 15.737,24.731 13.46,23.788 10.897,26.35 8.506,23.958 11.066,21.397 10.124,19.12 6.5,19.12     6.5,15.737 10.121,15.737 11.065,13.461 8.503,10.898 10.895,8.506 13.455,11.066 15.732,10.125 15.732,6.5 19.116,6.5     19.116,10.121 "/> 		<circle oryx:anchors="top left" id="_CCEBCA2B-B011-4667-91B0-E39AD2BF6F12frame23" style="opacity:1;fill:none;" stroke="#000000" cx="17.427" cy="17.426" r="3.714"/> 	</g> 	 	<g id="_CCEBCA2B-B011-4667-91B0-E39AD2BF6F12sendTask" display="none"> 		<path id="_CCEBCA2B-B011-4667-91B0-E39AD2BF6F12stframe24" oryx:anchors="left top" stroke="#FFFFFF" fill="black" stroke-width="1" d="M8,11 L8,21 L24,21 L24,11 L16,17z"/> 		<path id="_CCEBCA2B-B011-4667-91B0-E39AD2BF6F12stframe25" oryx:anchors="left top" stroke="#FFFFFF" fill="black" stroke-width="1" d="M7,10 L16,17 L25 10z"/> 	</g> 	 	<g id="_CCEBCA2B-B011-4667-91B0-E39AD2BF6F12receiveTask" display="none"> 		<path id="_CCEBCA2B-B011-4667-91B0-E39AD2BF6F12frame26" oryx:anchors="left top" stroke="#000000" fill="none" stroke-width="1" d="M8,11 L8,21 L24,21 L24,11z M8,11 L16,17 L24,11"/> 	</g> 	 	<g id="_CCEBCA2B-B011-4667-91B0-E39AD2BF6F12none" display="inherit"/>  	<g id="_CCEBCA2B-B011-4667-91B0-E39AD2BF6F12sequential" display="none">         <path oryx:anchors="bottom" fill="none" stroke="#000000" stroke-width="2" d=" M73.54 98  h10  M73.54 94  h10  M73.54 90  h10 " id="_CCEBCA2B-B011-4667-91B0-E39AD2BF6F12__CCEBCA2B-B011-4667-91B0-E39AD2BF6F12_20"/>     </g>   </g></g><g class="children" style="overflow:hidden"/><g class="edge"/></g><g class="controls"><g class="dockers"/><g class="magnets" transform="translate(480, 77)"><g pointer-events="all" display="none" transform="translate(-7, 17.5)"><circle cx="8" cy="8" r="4" stroke="none" fill="red" fill-opacity="0.3"/></g><g pointer-events="all" display="none" transform="translate(-7, 43)"><circle cx="8" cy="8" r="4" stroke="none" fill="red" fill-opacity="0.3"/></g><g pointer-events="all" display="none" transform="translate(-7, 68.5)"><circle cx="8" cy="8" r="4" stroke="none" fill="red" fill-opacity="0.3"/></g><g pointer-events="all" display="none" transform="translate(30.5, 93)"><circle cx="8" cy="8" r="4" stroke="none" fill="red" fill-opacity="0.3"/></g><g pointer-events="all" display="none" transform="translate(69, 93)"><circle cx="8" cy="8" r="4" stroke="none" fill="red" fill-opacity="0.3"/></g><g pointer-events="all" display="none" transform="translate(107.5, 93)"><circle cx="8" cy="8" r="4" stroke="none" fill="red" fill-opacity="0.3"/></g><g pointer-events="all" display="none" transform="translate(145, 17.5)"><circle cx="8" cy="8" r="4" stroke="none" fill="red" fill-opacity="0.3"/></g><g pointer-events="all" display="none" transform="translate(145, 43)"><circle cx="8" cy="8" r="4" stroke="none" fill="red" fill-opacity="0.3"/></g><g pointer-events="all" display="none" transform="translate(145, 68.5)"><circle cx="8" cy="8" r="4" stroke="none" fill="red" fill-opacity="0.3"/></g><g pointer-events="all" display="none" transform="translate(30.5, -7)"><circle cx="8" cy="8" r="4" stroke="none" fill="red" fill-opacity="0.3"/></g><g pointer-events="all" display="none" transform="translate(69, -7)"><circle cx="8" cy="8" r="4" stroke="none" fill="red" fill-opacity="0.3"/></g><g pointer-events="all" display="none" transform="translate(107.5, -7)"><circle cx="8" cy="8" r="4" stroke="none" fill="red" fill-opacity="0.3"/></g><g pointer-events="all" display="none" transform="translate(69, 43)"><circle cx="8" cy="8" r="4" stroke="none" fill="red" fill-opacity="0.3"/></g></g></g></g><g id="_FADAEDB6-5613-457D-B1D5-1EFEDD1028B6" bpmn2nodeid="_BA5C3669-BC25-40F9-BE73-BDEF5FE4491C"><g class="stencils" transform="translate(236, 77)"><g class="me"><g pointer-events="fill" oryx:minimumSize="50 40" id="_FADAEDB6-5613-457D-B1D5-1EFEDD1028B6">   	<defs id="_FADAEDB6-5613-457D-B1D5-1EFEDD1028B6__FADAEDB6-5613-457D-B1D5-1EFEDD1028B6_17"> 		<radialGradient id="_FADAEDB6-5613-457D-B1D5-1EFEDD1028B6background" cx="10%" cy="10%" r="100%" fx="10%" fy="10%"> 			<stop offset="0%" stop-color="#ffffff" stop-opacity="1" id="_FADAEDB6-5613-457D-B1D5-1EFEDD1028B6__FADAEDB6-5613-457D-B1D5-1EFEDD1028B6_18"/> 			<stop id="_FADAEDB6-5613-457D-B1D5-1EFEDD1028B6fill_el" offset="100%" stop-color="#fafad2" stop-opacity="1"/> 		</radialGradient> 		<radialGradient id="_FADAEDB6-5613-457D-B1D5-1EFEDD1028B6borderbackground" cx="10%" cy="10%" r="100%" fx="10%" fy="10%"> 			<stop offset="0%" stop-color="#ffffff" stop-opacity="1" id="_FADAEDB6-5613-457D-B1D5-1EFEDD1028B6__FADAEDB6-5613-457D-B1D5-1EFEDD1028B6_19"/> 			<stop id="_FADAEDB6-5613-457D-B1D5-1EFEDD1028B6fill_border" offset="100%" stop-color="#000000" stop-opacity="1" stroke="#000000"/> 		</radialGradient> 	</defs> 	 	<rect id="_FADAEDB6-5613-457D-B1D5-1EFEDD1028B6text_frame" oryx:anchors="bottom top right left" x="1" y="1" width="148" height="101" rx="10" ry="10" stroke="none" stroke-width="0" fill="none"/> 	<rect id="_FADAEDB6-5613-457D-B1D5-1EFEDD1028B6bg_frame" oryx:resize="vertical horizontal" x="0" y="0" width="154" height="102" rx="10" ry="10" stroke="#000000" stroke-width="1" fill="url(#_FADAEDB6-5613-457D-B1D5-1EFEDD1028B6background) #ffffcc"/> 		<text font-size="12" id="_FADAEDB6-5613-457D-B1D5-1EFEDD1028B6text_name" x="77" y="51" oryx:align="middle center" oryx:fittoelem="text_frame" stroke="black" text-anchor="middle" stroke-width="0pt" letter-spacing="-0.01px" fill="#000000" transform="rotate(0 77 51)" visibility="inherit" oryx:fontSize="12"><tspan x="77" y="51" dy="5">Ingresar Cliente</tspan></text>     <g id="_FADAEDB6-5613-457D-B1D5-1EFEDD1028B6manualTask" transform="scale(0.7,0.7) translate(8,8)" display="none">     	<path oryx:anchors="top left" id="_FADAEDB6-5613-457D-B1D5-1EFEDD1028B6frame" style="opacity:1;fill:none;fill-opacity:1;stroke-width:1" d="M0.5,3.751l4.083-3.25c0,0,11.166,0.083,12.083,0.083s-2.417,2.917-1.5,2.917     s11.667,0,12.584,0c1.166,1.708-0.168,3.167-0.834,3.667s0.875,1.917-1,4.417c-0.75,0.25,0.75,1.875-1.333,3.333     c-1.167,0.583,0.583,1.542-1.25,2.833c-1.167,0-20.833,0.083-20.833,0.083l-2-1.333V3.751z" stroke="#000000"/> 		<path id="_FADAEDB6-5613-457D-B1D5-1EFEDD1028B6frame2" oryx:anchors="top left" style="opacity:1;fill:none;stroke-width:2" d="M 13.5 7 L 27 7" stroke="#000000"/> 		<path id="_FADAEDB6-5613-457D-B1D5-1EFEDD1028B6frame3" oryx:anchors="top left" style="opacity:1;fill:none;stroke-width:2" d="M 13.5 11 L 26 11" stroke="#000000"/> 		<path id="_FADAEDB6-5613-457D-B1D5-1EFEDD1028B6frame4" oryx:anchors="top left" style="opacity:1;fill:none;stroke-width:1.5" d="M 14 14.5 L 25 14.5" stroke="#000000"/> 		<path id="_FADAEDB6-5613-457D-B1D5-1EFEDD1028B6frame5" oryx:anchors="top left" style="opacity:1;fill:none;stroke-width:1.5" d="M 8.2 3.1 L 15 3.1" stroke="#000000"/> 	</g> 	 	<g id="_FADAEDB6-5613-457D-B1D5-1EFEDD1028B6businessRuleTask" transform="scale(0.7,0.7) translate(8,8)" display="none"> 		<rect id="_FADAEDB6-5613-457D-B1D5-1EFEDD1028B6frame6" oryx:anchors="top left" x="0" y="0" width="22" height="4" style="opacity:1;fill:#B3B1B3;fill-opacity:1;" stroke="#000000"/> 		<rect id="_FADAEDB6-5613-457D-B1D5-1EFEDD1028B6frame7" oryx:anchors="top left" x="0" y="4" style="opacity:1;fill:none;" width="22" height="12" stroke="#000000"/> 		<path id="_FADAEDB6-5613-457D-B1D5-1EFEDD1028B6frame8" oryx:anchors="top left" style="opacity:1;fill:none;" d="M 0 10 L 22 10" stroke="#000000"/> 		<path id="_FADAEDB6-5613-457D-B1D5-1EFEDD1028B6frame9" oryx:anchors="top left" style="opacity:1; fill:none;" d="M 7 4 L 7 16" stroke="#000000"/> 	</g> 	 	<g id="_FADAEDB6-5613-457D-B1D5-1EFEDD1028B6scriptTask" transform="scale(0.7,0.7) translate(8,8)" display="none"> 		<path oryx:anchors="top left" id="_FADAEDB6-5613-457D-B1D5-1EFEDD1028B6frame10" style="opacity:1;fill:none;" stroke="#000000" d="M6.402,0.5h14.5c0,0-5.833,2.833-5.833,5.583s4.417,6,4.417,9.167    s-4.167,5.083-4.167,5.083H0.235c0,0,5-2.667,5-5s-4.583-6.75-4.583-9.25S6.402,0.5,6.402,0.5z"/> 		<path oryx:anchors="top left" id="_FADAEDB6-5613-457D-B1D5-1EFEDD1028B6frame11" style="opacity:1;fill:none;stroke-width:1.5" d="M 3.5 4.5 L 13.5 4.5" stroke="#000000"/> 		<path oryx:anchors="top left" id="_FADAEDB6-5613-457D-B1D5-1EFEDD1028B6frame12" style="opacity:1;fill:none;stroke-width:1.5" d="M 3.8 8.5 L 13.8 8.5" stroke="#000000"/> 		<path oryx:anchors="top left" id="_FADAEDB6-5613-457D-B1D5-1EFEDD1028B6frame13" style="opacity:1;fill:none;stroke-width:1.5" d="M 6.3 12.5 L 16.3 12.5" stroke="#000000"/> 		<path oryx:anchors="top left" id="_FADAEDB6-5613-457D-B1D5-1EFEDD1028B6frame14" style="opacity:1;fill:none;stroke-width:1.5" d="M 6.5 16.5 L 16.5 16.5" stroke="#000000"/> 	</g> 	 	<g id="_FADAEDB6-5613-457D-B1D5-1EFEDD1028B6userTask" transform="scale(0.7,0.7) translate(8,8)" display="inherit"> 		<path id="_FADAEDB6-5613-457D-B1D5-1EFEDD1028B6frame15" oryx:anchors="top left" style="opacity:1;fill:#F4F6F7" stroke="#000000" d="M0.585,24.167h24.083v-7.833c0,0-2.333-3.917-7.083-5.167h-9.25    c-4.417,1.333-7.833,5.75-7.833,5.75L0.585,24.167z"/> 		<path id="_FADAEDB6-5613-457D-B1D5-1EFEDD1028B6frame16" oryx:anchors="top left" style="opacity:1;fill:none" d="M 6 20 L 6 24" stroke="#000000"/> 		<path id="_FADAEDB6-5613-457D-B1D5-1EFEDD1028B6frame17" oryx:anchors="top left" style="opacity:1;fill:none" d="M 20 20 L 20 24" stroke="#000000"/> 		<circle id="_FADAEDB6-5613-457D-B1D5-1EFEDD1028B6frame18" oryx:anchors="top left" fill="black" cx="13.002" cy="5.916" r="5.417" stroke="#000000"/> 		<path id="_FADAEDB6-5613-457D-B1D5-1EFEDD1028B6frame19" oryx:anchors="top left" style="opacity:1;fill:#F0EFF0;" stroke="#000000" d="M8.043,7.083c0,0,2.814-2.426,5.376-1.807s4.624-0.693,4.624-0.693    c0.25,1.688,0.042,3.75-1.458,5.584c0,0,1.083,0.75,1.083,1.5s0.125,1.875-1,3s-5.5,1.25-6.75,0S8.668,12.834,8.668,12    s0.583-1.25,1.25-1.917C8.835,9.5,7.419,7.708,8.043,7.083z"/> 	</g> 	 	<g id="_FADAEDB6-5613-457D-B1D5-1EFEDD1028B6serviceTask" transform="scale(0.7,0.7) translate(8,8)" display="none"> 		<polygon oryx:anchors="top left" id="_FADAEDB6-5613-457D-B1D5-1EFEDD1028B6frame20" style="opacity:1;fill:#ffffff" stroke="#000000" points="15.392,5.064 17.954,2.502 20.347,4.895 17.786,7.455     18.729,9.732 22.353,9.732 22.353,13.115 18.731,13.115 17.788,15.392 20.351,17.955 17.958,20.347 15.397,17.786 13.12,18.729     13.12,22.353 9.737,22.353 9.737,18.731 7.46,17.788 4.897,20.35 2.506,17.958 5.066,15.397 4.124,13.12 0.5,13.12 0.5,9.737     4.121,9.737 5.065,7.461 2.503,4.898 4.895,2.506 7.455,5.066 9.732,4.125 9.732,0.5 13.116,0.5 13.116,4.121 "/> 		<circle oryx:anchors="top left" id="_FADAEDB6-5613-457D-B1D5-1EFEDD1028B6frame21" style="opacity:1;fill:none" stroke="#000000" cx="11.427" cy="11.426" r="3.714"/> 		<polygon oryx:anchors="top left" id="_FADAEDB6-5613-457D-B1D5-1EFEDD1028B6frame22" style="opacity:1;fill:#ffffff" stroke="#000000" points="21.392,11.064 23.954,8.502 26.347,10.895 23.786,13.455     24.729,15.732 28.353,15.732 28.353,19.115 24.731,19.115 23.788,21.392 26.351,23.955 23.958,26.347 21.397,23.786 19.12,24.729     19.12,28.353 15.737,28.353 15.737,24.731 13.46,23.788 10.897,26.35 8.506,23.958 11.066,21.397 10.124,19.12 6.5,19.12     6.5,15.737 10.121,15.737 11.065,13.461 8.503,10.898 10.895,8.506 13.455,11.066 15.732,10.125 15.732,6.5 19.116,6.5     19.116,10.121 "/> 		<circle oryx:anchors="top left" id="_FADAEDB6-5613-457D-B1D5-1EFEDD1028B6frame23" style="opacity:1;fill:none;" stroke="#000000" cx="17.427" cy="17.426" r="3.714"/> 	</g> 	 	<g id="_FADAEDB6-5613-457D-B1D5-1EFEDD1028B6sendTask" display="none"> 		<path id="_FADAEDB6-5613-457D-B1D5-1EFEDD1028B6stframe24" oryx:anchors="left top" stroke="#FFFFFF" fill="black" stroke-width="1" d="M8,11 L8,21 L24,21 L24,11 L16,17z"/> 		<path id="_FADAEDB6-5613-457D-B1D5-1EFEDD1028B6stframe25" oryx:anchors="left top" stroke="#FFFFFF" fill="black" stroke-width="1" d="M7,10 L16,17 L25 10z"/> 	</g> 	 	<g id="_FADAEDB6-5613-457D-B1D5-1EFEDD1028B6receiveTask" display="none"> 		<path id="_FADAEDB6-5613-457D-B1D5-1EFEDD1028B6frame26" oryx:anchors="left top" stroke="#000000" fill="none" stroke-width="1" d="M8,11 L8,21 L24,21 L24,11z M8,11 L16,17 L24,11"/> 	</g> 	 	<g id="_FADAEDB6-5613-457D-B1D5-1EFEDD1028B6none" display="inherit"/>  	<g id="_FADAEDB6-5613-457D-B1D5-1EFEDD1028B6sequential" display="none">         <path oryx:anchors="bottom" fill="none" stroke="#000000" stroke-width="2" d=" M73.54 98  h10  M73.54 94  h10  M73.54 90  h10 " id="_FADAEDB6-5613-457D-B1D5-1EFEDD1028B6__FADAEDB6-5613-457D-B1D5-1EFEDD1028B6_20"/>     </g>   </g></g><g class="children" style="overflow:hidden"/><g class="edge"/></g><g class="controls"><g class="dockers"/><g class="magnets" transform="translate(236, 77)"><g pointer-events="all" display="none" transform="translate(-7, 17.5)"><circle cx="8" cy="8" r="4" stroke="none" fill="red" fill-opacity="0.3"/></g><g pointer-events="all" display="none" transform="translate(-7, 43)"><circle cx="8" cy="8" r="4" stroke="none" fill="red" fill-opacity="0.3"/></g><g pointer-events="all" display="none" transform="translate(-7, 68.5)"><circle cx="8" cy="8" r="4" stroke="none" fill="red" fill-opacity="0.3"/></g><g pointer-events="all" display="none" transform="translate(30.5, 93)"><circle cx="8" cy="8" r="4" stroke="none" fill="red" fill-opacity="0.3"/></g><g pointer-events="all" display="none" transform="translate(69, 93)"><circle cx="8" cy="8" r="4" stroke="none" fill="red" fill-opacity="0.3"/></g><g pointer-events="all" display="none" transform="translate(107.5, 93)"><circle cx="8" cy="8" r="4" stroke="none" fill="red" fill-opacity="0.3"/></g><g pointer-events="all" display="none" transform="translate(145, 17.5)"><circle cx="8" cy="8" r="4" stroke="none" fill="red" fill-opacity="0.3"/></g><g pointer-events="all" display="none" transform="translate(145, 43)"><circle cx="8" cy="8" r="4" stroke="none" fill="red" fill-opacity="0.3"/></g><g pointer-events="all" display="none" transform="translate(145, 68.5)"><circle cx="8" cy="8" r="4" stroke="none" fill="red" fill-opacity="0.3"/></g><g pointer-events="all" display="none" transform="translate(30.5, -7)"><circle cx="8" cy="8" r="4" stroke="none" fill="red" fill-opacity="0.3"/></g><g pointer-events="all" display="none" transform="translate(69, -7)"><circle cx="8" cy="8" r="4" stroke="none" fill="red" fill-opacity="0.3"/></g><g pointer-events="all" display="none" transform="translate(107.5, -7)"><circle cx="8" cy="8" r="4" stroke="none" fill="red" fill-opacity="0.3"/></g><g pointer-events="all" display="none" transform="translate(69, 43)"><circle cx="8" cy="8" r="4" stroke="none" fill="red" fill-opacity="0.3"/></g></g></g></g><g id="_6BBCA425-9D80-4697-AEF5-775DD7E39052" bpmn2nodeid="_AB7473B5-A952-4507-8025-2AFB181E8C44"><g class="stencils" transform="translate(976, 114)"><g class="me"><g pointer-events="fill" id="_6BBCA425-9D80-4697-AEF5-775DD7E39052">      <defs id="_6BBCA425-9D80-4697-AEF5-775DD7E39052__6BBCA425-9D80-4697-AEF5-775DD7E39052_5"> 		<radialGradient id="_6BBCA425-9D80-4697-AEF5-775DD7E39052background" cx="10%" cy="10%" r="100%" fx="10%" fy="10%"> 			<stop offset="0%" stop-color="#ffffff" stop-opacity="1" id="_6BBCA425-9D80-4697-AEF5-775DD7E39052__6BBCA425-9D80-4697-AEF5-775DD7E39052_6"/> 			<stop id="_6BBCA425-9D80-4697-AEF5-775DD7E39052fill_el" offset="100%" stop-color="#ff6347" stop-opacity="1"/> 		</radialGradient> 	</defs> 	     <circle id="_6BBCA425-9D80-4697-AEF5-775DD7E39052bg_frame" cx="14" cy="14" r="14" stroke="#000000" fill="url(#_6BBCA425-9D80-4697-AEF5-775DD7E39052background) white" stroke-width="3"/> 	<text font-size="11" id="_6BBCA425-9D80-4697-AEF5-775DD7E39052text_name" x="14" y="30" oryx:align="top center" stroke="black" stroke-width="0pt" letter-spacing="-0.01px" fill="#000000" text-anchor="middle" transform="rotate(0 14 30)" visibility="inherit" oryx:fontSize="11"/>   </g></g><g class="children" style="overflow:hidden"/><g class="edge"/></g><g class="controls"><g class="dockers"/><g class="magnets" transform="translate(976, 114)"><g pointer-events="all" display="none" transform="translate(6, 6)"><circle cx="8" cy="8" r="4" stroke="none" fill="red" fill-opacity="0.3"/></g></g></g></g></g><g class="edge"><g id="_FF9A40E6-D81E-4888-B36B-6B032A4D1B17" bpmn2nodeid="_E1A46F4C-7146-4926-9289-FC46231CC2D3"><g class="stencils"><g class="me"><g pointer-events="painted" bpmn2nodeid="_9B144CEB-D74F-4482-88DF-7E79A23871D2"><path id="_FF9A40E6-D81E-4888-B36B-6B032A4D1B17_1" d="M634.69921875 128L734.30078125 128 " stroke="#000000" fill="none" stroke-width="2" stroke-linecap="round" stroke-linejoin="round" marker-start="url(#_FF9A40E6-D81E-4888-B36B-6B032A4D1B17start)" marker-end="url(#_FF9A40E6-D81E-4888-B36B-6B032A4D1B17end)"/></g><text id="_FF9A40E6-D81E-4888-B36B-6B032A4D1B17text_name" font-size="12" x="648.69921875" y="114" oryx:edgePosition="startTop" stroke-width="0pt" letter-spacing="-0.01px" fill="#000000" text-anchor="start" transform="rotate(360 634.69921875 128)" visibility="inherit" oryx:fontSize="12"/></g><g class="children" style="overflow:hidden"/><g class="edge"/></g><g class="controls"><g class="dockers"/><g class="magnets"/></g></g><g id="_7A789AAD-1382-4A72-96E1-F640918DE401" bpmn2nodeid="_05CD5753-66EE-4402-9801-B166DD530E42"><g class="stencils"><g class="me"><g pointer-events="painted" bpmn2nodeid="_65BDAAA3-AADE-49D0-9BEC-04238260DD2F"><path id="_7A789AAD-1382-4A72-96E1-F640918DE401_1" d="M390.25 128L479.75 128 " stroke="#000000" fill="none" stroke-width="2" stroke-linecap="round" stroke-linejoin="round" marker-start="url(#_7A789AAD-1382-4A72-96E1-F640918DE401start)" marker-end="url(#_7A789AAD-1382-4A72-96E1-F640918DE401end)"/></g><text id="_7A789AAD-1382-4A72-96E1-F640918DE401text_name" font-size="12" x="404.25" y="114" oryx:edgePosition="startTop" stroke-width="0pt" letter-spacing="-0.01px" fill="#000000" text-anchor="start" transform="rotate(360 390.25 128)" visibility="inherit" oryx:fontSize="12"/></g><g class="children" style="overflow:hidden"/><g class="edge"/></g><g class="controls"><g class="dockers"/><g class="magnets"/></g></g><g id="_E55C6FF4-BECD-4C08-B086-BB35417DA81A" bpmn2nodeid="_31785557-D790-4320-9933-C54FABF59213"><g class="stencils"><g class="me"><g pointer-events="painted" bpmn2nodeid="_0FDC75A8-B754-42F2-9143-189E97F8F6FB"><path id="_E55C6FF4-BECD-4C08-B086-BB35417DA81A_1" d="M165.0078125 128L235.59375 128 " stroke="#000000" fill="none" stroke-width="2" stroke-linecap="round" stroke-linejoin="round" marker-start="url(#_E55C6FF4-BECD-4C08-B086-BB35417DA81Astart)" marker-end="url(#_E55C6FF4-BECD-4C08-B086-BB35417DA81Aend)"/></g><text id="_E55C6FF4-BECD-4C08-B086-BB35417DA81Atext_name" font-size="12" x="179.0078125" y="114" oryx:edgePosition="startTop" stroke-width="0pt" letter-spacing="-0.01px" fill="#000000" text-anchor="start" transform="rotate(360 165.0078125 128)" visibility="inherit" oryx:fontSize="12"/></g><g class="children" style="overflow:hidden"/><g class="edge"/></g><g class="controls"><g class="dockers"/><g class="magnets"/></g></g><g id="_76650319-39A1-48D0-B4E9-E1850495BCC3" bpmn2nodeid="_01AE0096-A11F-4E65-B732-3C17FB7D1009"><g class="stencils"><g class="me"><g pointer-events="painted" bpmn2nodeid="_9039828A-EE82-4B9A-B1CA-483C23DA1EB3"><path id="_76650319-39A1-48D0-B4E9-E1850495BCC3_1" d="M889.484375 128L975.09375 128 " stroke="#000000" fill="none" stroke-width="2" stroke-linecap="round" stroke-linejoin="round" marker-start="url(#_76650319-39A1-48D0-B4E9-E1850495BCC3start)" marker-end="url(#_76650319-39A1-48D0-B4E9-E1850495BCC3end)"/></g><text id="_76650319-39A1-48D0-B4E9-E1850495BCC3text_name" font-size="12" x="903.484375" y="114" oryx:edgePosition="startTop" stroke-width="0pt" letter-spacing="-0.01px" fill="#000000" text-anchor="start" transform="rotate(360 889.484375 128)" visibility="inherit" oryx:fontSize="12"/></g><g class="children" style="overflow:hidden"/><g class="edge"/></g><g class="controls"><g class="dockers"/><g class="magnets"/></g></g></g><text id="_96823FA4-F47C-40DE-A046-EB378CD0586E" style="stroke-width:1;fill:rgb(177,194,214);font-family:arial;font-weight:bold" font-size="12" onclick="ORYX.Plugins.CanvasTitle.openTextualAnalysis()" onmouseover="ORYX.Plugins.CanvasTitle.addToolTip('_96823FA4-F47C-40DE-A046-EB378CD0586E')" transform="translate(10, 20)">Proceso de comprar v.1.0 (ProyectoPruebaSIC.Procesodecomprar)</text></g></g></svg>